{
	"accessors" : 
	[
		{
			"bufferView" : 2,
			"byteOffset" : 0,
			"componentType" : 5126,
			"count" : 3654,
			"max" : 
			[
				0.9075471758842468,
				0.3250369727611542,
				0.1275297701358795,
				1
			],
			"min" : 
			[
				0.006584956776350737,
				0.006584956776350737,
				0.006584956776350737,
				1
			],
			"name" : "accessor_color_m0-PolyPaper23_-170872",
			"type" : "VEC4"
		},
		{
			"bufferView" : 2,
			"byteOffset" : 58464,
			"componentType" : 5126,
			"count" : 7854,
			"max" : 
			[
				1,
				1,
				1,
				1
			],
			"min" : 
			[
				0.006584956776350737,
				0.006584956776350737,
				0.006584956776350737,
				1
			],
			"name" : "accessor_color_m1-PolyPaper8_-167128",
			"type" : "VEC4"
		},
		{
			"bufferView" : 0,
			"byteOffset" : 0,
			"componentType" : 5123,
			"count" : 5010,
			"max" : 
			[
				3653
			],
			"min" : 
			[
				0
			],
			"name" : "accessor_indices_0_m0-PolyPaper23_-170872",
			"type" : "SCALAR"
		},
		{
			"bufferView" : 0,
			"byteOffset" : 10020,
			"componentType" : 5123,
			"count" : 10560,
			"max" : 
			[
				7853
			],
			"min" : 
			[
				0
			],
			"name" : "accessor_indices_0_m1-PolyPaper8_-167128",
			"type" : "SCALAR"
		},
		{
			"bufferView" : 1,
			"byteOffset" : 43848,
			"componentType" : 5126,
			"count" : 3654,
			"max" : 
			[
				0.998696,
				0.9976996,
				0.9958296
			],
			"min" : 
			[
				-0.9992406,
				-0.9887083,
				-0.9989167
			],
			"name" : "accessor_normal_m0-PolyPaper23_-170872",
			"type" : "VEC3"
		},
		{
			"bufferView" : 1,
			"byteOffset" : 181944,
			"componentType" : 5126,
			"count" : 7854,
			"max" : 
			[
				0.9994455,
				0.9999973,
				0.999992
			],
			"min" : 
			[
				-0.9991561,
				-0.9999973,
				-0.999992
			],
			"name" : "accessor_normal_m1-PolyPaper8_-167128",
			"type" : "VEC3"
		},
		{
			"bufferView" : 1,
			"byteOffset" : 0,
			"componentType" : 5126,
			"count" : 3654,
			"max" : 
			[
				0.65906,
				2.301723,
				0.3839699
			],
			"min" : 
			[
				-0.8352862,
				0.6526626,
				-1.454499
			],
			"name" : "accessor_position_m0-PolyPaper23_-170872",
			"type" : "VEC3"
		},
		{
			"bufferView" : 1,
			"byteOffset" : 87696,
			"componentType" : 5126,
			"count" : 7854,
			"max" : 
			[
				0.8483676,
				2.358042,
				0.09999719
			],
			"min" : 
			[
				-1.047172,
				0.3877814,
				-1.596061
			],
			"name" : "accessor_position_m1-PolyPaper8_-167128",
			"type" : "VEC3"
		}
	],
	"asset" : 
	{
		"copyright" : "Unknown",
		"generator" : "glTF 1-to-2 Upgrader for Google Blocks",
		"version" : "2.0"
	},
	"bufferViews" : 
	[
		{
			"buffer" : 0,
			"byteLength" : 31140,
			"byteOffset" : 0,
			"name" : "ushortBufferView",
			"target" : 34963
		},
		{
			"buffer" : 0,
			"byteLength" : 276192,
			"byteOffset" : 31140,
			"byteStride" : 12,
			"name" : "vec3BufferView",
			"target" : 34962
		},
		{
			"buffer" : 0,
			"byteLength" : 184128,
			"byteOffset" : 307332,
			"byteStride" : 16,
			"name" : "vec4BufferView",
			"target" : 34962
		}
	],
	"buffers" : 
	[
		{
			"byteLength" : 491460,
			"name" : "model",
			"uri" : "demonmodel.bin"
		}
	],
	"materials" : 
	[
		{
			"alphaMode" : "OPAQUE",
			"doubleSided" : false,
			"name" : "BlocksPaper",
			"pbrMetallicRoughness" : 
			{
				"baseColorFactor" : 
				[
					1,
					1,
					1,
					1
				],
				"metallicFactor" : 0,
				"roughnessFactor" : 0.6
			}
		},
		{
			"alphaMode" : "BLEND",
			"doubleSided" : false,
			"name" : "BlocksGlass",
			"pbrMetallicRoughness" : 
			{
				"baseColorFactor" : 
				[
					0.2,
					0.2,
					1,
					0.3
				],
				"metallicFactor" : 1,
				"roughnessFactor" : 0.4
			}
		},
		{
			"alphaMode" : "OPAQUE",
			"doubleSided" : true,
			"name" : "BlocksGem",
			"pbrMetallicRoughness" : 
			{
				"baseColorFactor" : 
				[
					1,
					0.4,
					1,
					1
				],
				"metallicFactor" : 0,
				"roughnessFactor" : 0.1
			}
		}
	],
	"meshes" : 
	[
		{
			"name" : "mesh_m0-PolyPaper23_-170872",
			"primitives" : 
			[
				{
					"attributes" : 
					{
						"COLOR_0" : 0,
						"NORMAL" : 4,
						"POSITION" : 6
					},
					"indices" : 2,
					"material" : 0,
					"mode" : 4
				}
			]
		},
		{
			"name" : "mesh_m1-PolyPaper8_-167128",
			"primitives" : 
			[
				{
					"attributes" : 
					{
						"COLOR_0" : 1,
						"NORMAL" : 5,
						"POSITION" : 7
					},
					"indices" : 3,
					"material" : 0,
					"mode" : 4
				}
			]
		}
	],
	"nodes" : 
	[
		{
			"matrix" : 
			[
				1,
				0,
				0,
				0,
				0,
				1,
				0,
				0,
				0,
				0,
				1,
				0,
				0,
				0,
				0,
				1
			],
			"mesh" : 0,
			"name" : "node_MeshObject-1320272576-PolyPaper23"
		},
		{
			"matrix" : 
			[
				1,
				0,
				0,
				0,
				0,
				1,
				0,
				0,
				0,
				0,
				1,
				0,
				0,
				0,
				0,
				1
			],
			"mesh" : 1,
			"name" : "node_MeshObject-1472443200-PolyPaper8"
		}
	],
	"scene" : 0,
	"scenes" : 
	[
		{
			"extras" : {},
			"name" : "defaultScene",
			"nodes" : 
			[
				0,
				1
			]
		}
	]
}