# Blender v2.79 (sub 0) OBJ File: 'Towers.blend'
# www.blender.org
mtllib road.mtl
o Box004
v 26.778000 -0.982807 41.116699
v 26.778000 -0.982807 44.829800
v 1.876800 -0.982807 44.829800
v 1.876800 -0.982807 41.116699
v 1.876800 2.087393 41.116699
v 1.876800 2.087393 44.829800
v 26.778000 2.087393 44.829800
v 26.778000 2.087393 41.116699
v -117.251602 -0.982812 74.953697
v 145.906296 -0.982812 74.953697
v 145.906296 2.087388 74.953697
v -117.251602 2.087388 74.953697
v 145.906296 0.697493 41.116699
v 145.906296 0.697493 44.829800
v 145.906296 0.406993 44.829800
v 145.906296 0.406993 41.116699
v 145.906296 -0.982791 -54.432301
v -117.251602 -0.982791 -54.432301
v -117.251602 2.087409 -54.432301
v 145.906296 2.087409 -54.432301
v -117.251602 0.697493 44.829800
v -117.251602 0.697493 41.116699
v -117.251602 0.406993 41.116699
v -117.251602 0.406993 44.829800
v 145.906296 -0.982804 21.731300
v -117.251602 -0.982804 21.731300
v -117.251602 -0.982810 64.215202
v 145.906296 -0.982810 64.215202
v -117.251602 2.087396 21.731300
v 145.906296 2.087396 21.731300
v 145.906296 2.087389 64.215202
v -117.251602 2.087389 64.215202
v 145.906296 -0.982807 41.116699
v 126.383003 -0.982807 41.116699
v 101.481796 -0.982807 41.116699
v 76.580498 -0.982807 41.116699
v 51.679298 -0.982807 41.116699
v -23.024500 -0.982807 41.116699
v -47.925701 -0.982807 41.116699
v -72.827003 -0.982807 41.116699
v -97.728203 -0.982807 41.116699
v -117.251602 -0.982807 41.116699
v -117.251602 -0.982807 44.829800
v -97.728203 -0.982807 44.829800
v -72.827003 -0.982807 44.829800
v -47.925800 -0.982807 44.829800
v -23.024500 -0.982807 44.829800
v 51.679199 -0.982807 44.829800
v 76.580498 -0.982807 44.829800
v 101.481796 -0.982807 44.829800
v 126.383003 -0.982807 44.829800
v 145.906296 -0.982807 44.829800
v -117.251602 2.087393 41.116699
v -97.728203 2.087393 41.116699
v -72.827003 2.087393 41.116699
v -47.925800 2.087393 41.116699
v -23.024500 2.087393 41.116699
v 51.679199 2.087393 41.116699
v 76.580498 2.087393 41.116699
v 101.481796 2.087393 41.116699
v 126.383003 2.087393 41.116699
v 145.906296 2.087393 41.116699
v 145.906296 2.087393 44.829800
v 126.383003 2.087393 44.829800
v 101.481796 2.087393 44.829800
v 76.580498 2.087393 44.829800
v 51.679298 2.087393 44.829800
v -23.024500 2.087393 44.829800
v -47.925701 2.087393 44.829800
v -72.827003 2.087393 44.829800
v -97.728203 2.087393 44.829800
v -117.251602 2.087393 44.829800
v 145.906296 1.859593 41.116699
v 145.906296 1.569093 41.116699
v 145.906296 1.278593 41.116699
v 145.906296 0.987993 41.116699
v 145.906296 0.116493 41.116699
v 145.906296 -0.174007 41.116699
v 145.906296 -0.464507 41.116699
v 145.906296 -0.755007 41.116699
v 145.906296 -0.755007 44.829800
v 145.906296 -0.464507 44.829800
v 145.906296 -0.174007 44.829800
v 145.906296 0.116493 44.829800
v 145.906296 0.987993 44.829800
v 145.906296 1.278593 44.829800
v 145.906296 1.569093 44.829800
v 145.906296 1.859593 44.829800
v -117.251602 1.859593 44.829800
v -117.251602 1.569093 44.829800
v -117.251602 1.278593 44.829800
v -117.251602 0.987993 44.829800
v -117.251602 0.116493 44.829800
v -117.251602 -0.174007 44.829800
v -117.251602 -0.464507 44.829800
v -117.251602 -0.755007 44.829800
v -117.251602 -0.755007 41.116699
v -117.251602 -0.464507 41.116699
v -117.251602 -0.174007 41.116699
v -117.251602 0.116493 41.116699
v -117.251602 0.987993 41.116699
v -117.251602 1.278593 41.116699
v -117.251602 1.569093 41.116699
v -117.251602 1.859593 41.116699
v 2.008839 -0.982807 100.844452
v 2.008837 -0.982807 97.131355
v 26.910038 -0.982807 97.131348
v 26.910038 -0.982807 100.844452
v 26.910038 2.087393 100.844452
v 26.910038 2.087393 97.131348
v 2.008837 2.087393 97.131355
v 2.008839 2.087393 100.844452
v 146.038437 -0.982812 67.007439
v -117.119469 -0.982812 67.007477
v -117.119469 2.087388 67.007477
v 146.038437 2.087388 67.007439
v -117.119453 0.697493 100.844475
v -117.119453 0.697493 97.131378
v -117.119453 0.406993 97.131378
v -117.119453 0.406993 100.844475
v -117.119438 -0.982791 132.512024
v 146.038452 -0.982791 132.511978
v 146.038452 2.087409 132.511978
v -117.119438 2.087409 132.512024
v 146.038437 0.697493 97.131332
v 146.038437 0.697493 100.844437
v 146.038437 0.406993 100.844437
v 146.038437 0.406993 97.131332
v -117.119453 -0.982804 120.229874
v 146.038452 -0.982804 120.229836
v 146.038437 -0.982810 77.745934
v -117.119469 -0.982810 77.745972
v 146.038452 2.087396 120.229828
v -117.119453 2.087396 120.229874
v -117.119469 2.087389 77.745972
v 146.038437 2.087389 77.745934
v -117.119453 -0.982807 100.844475
v -97.596169 -0.982807 100.844467
v -72.694962 -0.982807 100.844467
v -47.793663 -0.982807 100.844467
v -22.892462 -0.982807 100.844460
v 51.811340 -0.982807 100.844452
v 76.712540 -0.982807 100.844444
v 101.613838 -0.982807 100.844437
v 126.515038 -0.982807 100.844437
v 146.038437 -0.982807 100.844437
v 146.038437 -0.982807 97.131332
v 126.515038 -0.982807 97.131332
v 101.613838 -0.982807 97.131340
v 76.712639 -0.982807 97.131348
v 51.811337 -0.982807 97.131348
v -22.892363 -0.982807 97.131363
v -47.793663 -0.982807 97.131363
v -72.694962 -0.982807 97.131363
v -97.596169 -0.982807 97.131371
v -117.119453 -0.982807 97.131378
v 146.038437 2.087393 100.844437
v 126.515038 2.087393 100.844437
v 101.613838 2.087393 100.844437
v 76.712639 2.087393 100.844444
v 51.811340 2.087393 100.844452
v -22.892363 2.087393 100.844460
v -47.793663 2.087393 100.844467
v -72.694962 2.087393 100.844467
v -97.596169 2.087393 100.844467
v -117.119453 2.087393 100.844475
v -117.119453 2.087393 97.131378
v -97.596169 2.087393 97.131371
v -72.694962 2.087393 97.131363
v -47.793663 2.087393 97.131363
v -22.892462 2.087393 97.131363
v 51.811337 2.087393 97.131348
v 76.712540 2.087393 97.131348
v 101.613838 2.087393 97.131340
v 126.515038 2.087393 97.131332
v 146.038437 2.087393 97.131332
v -117.119453 1.859593 100.844475
v -117.119453 1.569093 100.844475
v -117.119453 1.278593 100.844475
v -117.119453 0.987993 100.844475
v -117.119453 0.116493 100.844475
v -117.119453 -0.174007 100.844475
v -117.119453 -0.464507 100.844475
v -117.119453 -0.755007 100.844475
v -117.119453 -0.755007 97.131378
v -117.119453 -0.464507 97.131378
v -117.119453 -0.174007 97.131378
v -117.119453 0.116493 97.131378
v -117.119453 0.987993 97.131378
v -117.119453 1.278593 97.131378
v -117.119453 1.569093 97.131378
v -117.119453 1.859593 97.131378
v 146.038437 1.859593 97.131332
v 146.038437 1.569093 97.131332
v 146.038437 1.278593 97.131332
v 146.038437 0.987993 97.131332
v 146.038437 0.116493 97.131332
v 146.038437 -0.174007 97.131332
v 146.038437 -0.464507 97.131332
v 146.038437 -0.755007 97.131332
v 146.038437 -0.755007 100.844437
v 146.038437 -0.464507 100.844437
v 146.038437 -0.174007 100.844437
v 146.038437 0.116493 100.844437
v 146.038437 0.987993 100.844437
v 146.038437 1.278593 100.844437
v 146.038437 1.569093 100.844437
v 146.038437 1.859593 100.844437
vt 0.000000 0.261500
vt 0.000000 0.232800
vt 0.074200 0.232800
vt 0.074200 0.261500
vt 0.168800 0.261500
vt 0.168800 0.232800
vt 0.263400 0.232800
vt 0.263400 0.261500
vt 0.358100 0.261500
vt 0.358100 0.232800
vt 0.452700 0.232800
vt 0.452700 0.261500
vt 1.000000 0.232800
vt 1.000000 0.261500
vt 0.925800 0.261500
vt 0.925800 0.232800
vt 0.831200 0.232800
vt 0.831200 0.261500
vt 0.736600 0.261500
vt 0.736600 0.232800
vt 0.641900 0.232800
vt 0.641900 0.261500
vt 0.547300 0.261500
vt 0.547300 0.232800
vt 0.261500 0.547300
vt 0.232800 0.547300
vt 0.232800 0.452700
vt 0.261500 0.452700
vt 0.000000 1.000000
vt 0.000000 0.000000
vt 0.083000 0.000000
vt 0.083000 1.000000
vt 0.411300 0.000000
vt 0.411300 1.000000
vt 0.261500 1.000000
vt 0.261500 0.925800
vt 0.261500 0.831200
vt 0.261500 0.736600
vt 0.261500 0.641900
vt 0.261500 0.358100
vt 0.261500 0.263400
vt 0.261500 0.168800
vt 0.261500 0.074200
vt 0.261500 0.000000
vt 0.232800 0.000000
vt 0.232800 0.074200
vt 0.232800 0.168800
vt 0.232800 0.263400
vt 0.232800 0.358100
vt 0.232800 0.641900
vt 0.232800 0.736600
vt 0.232800 0.831200
vt 0.232800 0.925800
vt 0.232800 1.000000
vt 0.452700 0.261500
vt 0.452700 0.232800
vt 0.547300 0.232800
vt 0.547300 0.261500
vt 1.000000 0.411300
vt 0.000000 0.411300
vt 0.000000 0.261500
vt 0.074200 0.261500
vt 0.168800 0.261500
vt 0.263400 0.261500
vt 0.358100 0.261500
vt 0.641900 0.261500
vt 0.736600 0.261500
vt 0.831200 0.261500
vt 0.925800 0.261500
vt 1.000000 0.261500
vt 0.000000 0.083000
vt 1.000000 0.083000
vt 1.000000 0.232800
vt 0.925800 0.232800
vt 0.831200 0.232800
vt 0.736600 0.232800
vt 0.641900 0.232800
vt 0.358100 0.232800
vt 0.263400 0.232800
vt 0.168800 0.232800
vt 0.074200 0.232800
vt 0.000000 0.232800
vt 0.000000 0.000000
vt 1.000000 0.000000
vt 1.000000 1.000000
vt 0.000000 1.000000
vt 0.000000 0.000000
vt 1.000000 0.000000
vt 1.000000 1.000000
vt 0.000000 1.000000
vt 1.000000 1.000000
vt 0.000000 1.000000
vt 1.000000 0.000000
vt 1.000000 1.000000
vt 0.000000 1.000000
vt 0.000000 0.411300
vt 1.000000 0.411300
vt 0.000000 0.000000
vt 1.000000 0.000000
vt 1.000000 0.083000
vt 0.000000 0.083000
vt 1.000000 0.000000
vt 0.000000 0.000000
vt 0.588700 0.000000
vt 0.588700 1.000000
vt 0.767200 0.547300
vt 0.738500 0.547300
vt 0.738500 0.452700
vt 0.767200 0.452700
vt 1.000000 1.000000
vt 0.917000 1.000000
vt 0.917000 0.000000
vt 0.767200 1.000000
vt 0.767200 0.925800
vt 0.767200 0.831200
vt 0.767200 0.736600
vt 0.767200 0.641900
vt 0.767200 0.358100
vt 0.767200 0.263400
vt 0.767200 0.168800
vt 0.767200 0.074200
vt 0.767200 0.000000
vt 0.738500 0.000000
vt 0.738500 0.074200
vt 0.738500 0.168800
vt 0.738500 0.263400
vt 0.738500 0.358100
vt 0.738500 0.641900
vt 0.738500 0.736600
vt 0.738500 0.831200
vt 0.738500 0.925800
vt 0.738500 1.000000
vt 0.000000 0.261500
vt 0.000000 0.232800
vt 0.074200 0.232800
vt 0.074200 0.261500
vt 0.168800 0.261500
vt 0.168800 0.232800
vt 0.263400 0.232800
vt 0.263400 0.261500
vt 0.358100 0.261500
vt 0.358100 0.232800
vt 0.452700 0.232800
vt 0.452700 0.261500
vt 1.000000 0.232800
vt 1.000000 0.261500
vt 0.925800 0.261500
vt 0.925800 0.232800
vt 0.831200 0.232800
vt 0.831200 0.261500
vt 0.736600 0.261500
vt 0.736600 0.232800
vt 0.641900 0.232800
vt 0.641900 0.261500
vt 0.547300 0.261500
vt 0.547300 0.232800
vt 0.261500 0.547300
vt 0.232800 0.547300
vt 0.232800 0.452700
vt 0.261500 0.452700
vt 0.000000 1.000000
vt 0.000000 0.000000
vt 0.083000 0.000000
vt 0.083000 1.000000
vt 0.411300 0.000000
vt 0.411300 1.000000
vt 0.261500 1.000000
vt 0.261500 0.925800
vt 0.261500 0.831200
vt 0.261500 0.736600
vt 0.261500 0.641900
vt 0.261500 0.358100
vt 0.261500 0.263400
vt 0.261500 0.168800
vt 0.261500 0.074200
vt 0.261500 0.000000
vt 0.232800 0.000000
vt 0.232800 0.074200
vt 0.232800 0.168800
vt 0.232800 0.263400
vt 0.232800 0.358100
vt 0.232800 0.641900
vt 0.232800 0.736600
vt 0.232800 0.831200
vt 0.232800 0.925800
vt 0.232800 1.000000
vt 0.452700 0.261500
vt 0.452700 0.232800
vt 0.547300 0.232800
vt 0.547300 0.261500
vt 1.000000 0.411300
vt 0.000000 0.411300
vt 0.000000 0.261500
vt 0.074200 0.261500
vt 0.168800 0.261500
vt 0.263400 0.261500
vt 0.358100 0.261500
vt 0.641900 0.261500
vt 0.736600 0.261500
vt 0.831200 0.261500
vt 0.925800 0.261500
vt 1.000000 0.261500
vt 0.000000 0.083000
vt 1.000000 0.083000
vt 1.000000 0.232800
vt 0.925800 0.232800
vt 0.831200 0.232800
vt 0.736600 0.232800
vt 0.641900 0.232800
vt 0.358100 0.232800
vt 0.263400 0.232800
vt 0.168800 0.232800
vt 0.074200 0.232800
vt 0.000000 0.232800
vt 0.000000 0.000000
vt 1.000000 0.000000
vt 1.000000 1.000000
vt 0.000000 1.000000
vt 0.000000 0.000000
vt 1.000000 0.000000
vt 1.000000 1.000000
vt 0.000000 1.000000
vt 1.000000 1.000000
vt 0.000000 1.000000
vt 1.000000 0.000000
vt 1.000000 1.000000
vt 0.000000 1.000000
vt 0.000000 0.411300
vt 1.000000 0.411300
vt 0.000000 0.000000
vt 1.000000 0.000000
vt 1.000000 0.083000
vt 0.000000 0.083000
vt 1.000000 0.000000
vt 0.000000 0.000000
vt 0.588700 0.000000
vt 0.588700 1.000000
vt 0.767200 0.547300
vt 0.738500 0.547300
vt 0.738500 0.452700
vt 0.767200 0.452700
vt 1.000000 1.000000
vt 0.917000 1.000000
vt 0.917000 0.000000
vt 0.767200 1.000000
vt 0.767200 0.925800
vt 0.767200 0.831200
vt 0.767200 0.736600
vt 0.767200 0.641900
vt 0.767200 0.358100
vt 0.767200 0.263400
vt 0.767200 0.168800
vt 0.767200 0.074200
vt 0.767200 0.000000
vt 0.738500 0.000000
vt 0.738500 0.074200
vt 0.738500 0.168800
vt 0.738500 0.263400
vt 0.738500 0.358100
vt 0.738500 0.641900
vt 0.738500 0.736600
vt 0.738500 0.831200
vt 0.738500 0.925800
vt 0.738500 1.000000
vn 0.0000 1.0000 0.0000
vn 1.0000 0.0000 0.0000
vn 0.0000 -1.0000 -0.0000
vn 0.0000 0.0000 1.0000
vn 0.0000 0.0000 -1.0000
vn -1.0000 0.0000 0.0000
usemtl 20___Default.002
s 1
f 53/1/1 72/2/1 71/3/1 54/4/1
f 55/5/1 70/6/1 69/7/1 56/8/1
f 57/9/1 68/10/1 6/11/1 5/12/1
f 63/13/1 62/14/1 61/15/1 64/16/1
f 65/17/1 60/18/1 59/19/1 66/20/1
f 67/21/1 58/22/1 8/23/1 7/24/1
usemtl Material__490.002
f 13/25/2 14/26/2 15/27/2 16/28/2
f 11/29/2 10/30/2 28/31/2 31/32/2
f 25/33/2 30/34/2 62/35/2 73/36/2
f 25/33/2 73/36/2 74/37/2 75/38/2
f 25/33/2 75/38/2 76/39/2 13/25/2
f 25/33/2 13/25/2 16/28/2 77/40/2
f 25/33/2 77/40/2 78/41/2 79/42/2
f 25/33/2 79/42/2 80/43/2 33/44/2
f 31/32/2 28/31/2 52/45/2 81/46/2
f 31/32/2 81/46/2 82/47/2 83/48/2
f 31/32/2 83/48/2 84/49/2 15/27/2
f 31/32/2 15/27/2 14/26/2 85/50/2
f 31/32/2 85/50/2 86/51/2 87/52/2
f 31/32/2 87/52/2 88/53/2 63/54/2
f 62/35/2 63/54/2 88/53/2 73/36/2
f 73/36/2 88/53/2 87/52/2 74/37/2
f 74/37/2 87/52/2 86/51/2 75/38/2
f 75/38/2 86/51/2 85/50/2 76/39/2
f 76/39/2 85/50/2 14/26/2 13/25/2
f 52/45/2 33/44/2 80/43/2 81/46/2
f 81/46/2 80/43/2 79/42/2 82/47/2
f 82/47/2 79/42/2 78/41/2 83/48/2
f 83/48/2 78/41/2 77/40/2 84/49/2
f 84/49/2 77/40/2 16/28/2 15/27/2
usemtl Material__488.002
f 1/55/3 2/56/3 3/57/3 4/58/3
f 26/59/3 25/60/3 33/61/3 34/62/3
f 26/59/3 34/62/3 35/63/3 36/64/3
f 26/59/3 36/64/3 37/65/3 1/55/3
f 26/59/3 1/55/3 4/58/3 38/66/3
f 26/59/3 38/66/3 39/67/3 40/68/3
f 26/59/3 40/68/3 41/69/3 42/70/3
f 28/71/3 27/72/3 43/73/3 44/74/3
f 28/71/3 44/74/3 45/75/3 46/76/3
f 28/71/3 46/76/3 47/77/3 3/57/3
f 28/71/3 3/57/3 2/56/3 48/78/3
f 28/71/3 48/78/3 49/79/3 50/80/3
f 28/71/3 50/80/3 51/81/3 52/82/3
f 33/61/3 52/82/3 51/81/3 34/62/3
f 34/62/3 51/81/3 50/80/3 35/63/3
f 35/63/3 50/80/3 49/79/3 36/64/3
f 36/64/3 49/79/3 48/78/3 37/65/3
f 37/65/3 48/78/3 2/56/3 1/55/3
f 43/73/3 42/70/3 41/69/3 44/74/3
f 44/74/3 41/69/3 40/68/3 45/75/3
f 45/75/3 40/68/3 39/67/3 46/76/3
f 46/76/3 39/67/3 38/66/3 47/77/3
f 47/77/3 38/66/3 4/58/3 3/57/3
usemtl 19___Default.002
f 9/83/4 10/84/4 11/85/4 12/86/4
f 17/87/5 18/88/5 19/89/5 20/90/5
f 18/91/3 17/92/3 25/60/3 26/59/3
f 10/30/3 9/93/3 27/72/3 28/71/3
f 20/94/1 19/95/1 29/96/1 30/97/1
f 12/98/1 11/99/1 31/100/1 32/101/1
f 17/102/2 20/94/2 30/34/2 25/33/2
f 19/95/6 18/103/6 26/104/6 29/105/6
usemtl Material__487.002
f 5/12/1 6/11/1 7/24/1 8/23/1
f 30/97/1 29/96/1 53/1/1 54/4/1
f 30/97/1 54/4/1 55/5/1 56/8/1
f 30/97/1 56/8/1 57/9/1 5/12/1
f 30/97/1 5/12/1 8/23/1 58/22/1
f 30/97/1 58/22/1 59/19/1 60/18/1
f 30/97/1 60/18/1 61/15/1 62/14/1
f 32/101/1 31/100/1 63/13/1 64/16/1
f 32/101/1 64/16/1 65/17/1 66/20/1
f 32/101/1 66/20/1 67/21/1 7/24/1
f 32/101/1 7/24/1 6/11/1 68/10/1
f 32/101/1 68/10/1 69/7/1 70/6/1
f 32/101/1 70/6/1 71/3/1 72/2/1
f 54/4/1 71/3/1 70/6/1 55/5/1
f 56/8/1 69/7/1 68/10/1 57/9/1
f 64/16/1 61/15/1 60/18/1 65/17/1
f 66/20/1 59/19/1 58/22/1 67/21/1
usemtl Material__489.002
f 21/106/6 22/107/6 23/108/6 24/109/6
f 9/93/6 12/110/6 32/111/6 27/112/6
f 27/112/6 32/111/6 72/113/6 89/114/6
f 27/112/6 89/114/6 90/115/6 91/116/6
f 27/112/6 91/116/6 92/117/6 21/106/6
f 27/112/6 21/106/6 24/109/6 93/118/6
f 27/112/6 93/118/6 94/119/6 95/120/6
f 27/112/6 95/120/6 96/121/6 43/122/6
f 29/105/6 26/104/6 42/123/6 97/124/6
f 29/105/6 97/124/6 98/125/6 99/126/6
f 29/105/6 99/126/6 100/127/6 23/108/6
f 29/105/6 23/108/6 22/107/6 101/128/6
f 29/105/6 101/128/6 102/129/6 103/130/6
f 29/105/6 103/130/6 104/131/6 53/132/6
f 72/113/6 53/132/6 104/131/6 89/114/6
f 89/114/6 104/131/6 103/130/6 90/115/6
f 90/115/6 103/130/6 102/129/6 91/116/6
f 91/116/6 102/129/6 101/128/6 92/117/6
f 92/117/6 101/128/6 22/107/6 21/106/6
f 42/123/6 43/122/6 96/121/6 97/124/6
f 97/124/6 96/121/6 95/120/6 98/125/6
f 98/125/6 95/120/6 94/119/6 99/126/6
f 99/126/6 94/119/6 93/118/6 100/127/6
f 100/127/6 93/118/6 24/109/6 23/108/6
usemtl 20___Default.003
f 157/133/1 176/134/1 175/135/1 158/136/1
f 159/137/1 174/138/1 173/139/1 160/140/1
f 161/141/1 172/142/1 110/143/1 109/144/1
f 167/145/1 166/146/1 165/147/1 168/148/1
f 169/149/1 164/150/1 163/151/1 170/152/1
f 171/153/1 162/154/1 112/155/1 111/156/1
usemtl Material__490.003
f 117/157/6 118/158/6 119/159/6 120/160/6
f 115/161/6 114/162/6 132/163/6 135/164/6
f 129/165/6 134/166/6 166/167/6 177/168/6
f 129/165/6 177/168/6 178/169/6 179/170/6
f 129/165/6 179/170/6 180/171/6 117/157/6
f 129/165/6 117/157/6 120/160/6 181/172/6
f 129/165/6 181/172/6 182/173/6 183/174/6
f 129/165/6 183/174/6 184/175/6 137/176/6
f 135/164/6 132/163/6 156/177/6 185/178/6
f 135/164/6 185/178/6 186/179/6 187/180/6
f 135/164/6 187/180/6 188/181/6 119/159/6
f 135/164/6 119/159/6 118/158/6 189/182/6
f 135/164/6 189/182/6 190/183/6 191/184/6
f 135/164/6 191/184/6 192/185/6 167/186/6
f 166/167/6 167/186/6 192/185/6 177/168/6
f 177/168/6 192/185/6 191/184/6 178/169/6
f 178/169/6 191/184/6 190/183/6 179/170/6
f 179/170/6 190/183/6 189/182/6 180/171/6
f 180/171/6 189/182/6 118/158/6 117/157/6
f 156/177/6 137/176/6 184/175/6 185/178/6
f 185/178/6 184/175/6 183/174/6 186/179/6
f 186/179/6 183/174/6 182/173/6 187/180/6
f 187/180/6 182/173/6 181/172/6 188/181/6
f 188/181/6 181/172/6 120/160/6 119/159/6
usemtl Material__488.003
f 105/187/3 106/188/3 107/189/3 108/190/3
f 130/191/3 129/192/3 137/193/3 138/194/3
f 130/191/3 138/194/3 139/195/3 140/196/3
f 130/191/3 140/196/3 141/197/3 105/187/3
f 130/191/3 105/187/3 108/190/3 142/198/3
f 130/191/3 142/198/3 143/199/3 144/200/3
f 130/191/3 144/200/3 145/201/3 146/202/3
f 132/203/3 131/204/3 147/205/3 148/206/3
f 132/203/3 148/206/3 149/207/3 150/208/3
f 132/203/3 150/208/3 151/209/3 107/189/3
f 132/203/3 107/189/3 106/188/3 152/210/3
f 132/203/3 152/210/3 153/211/3 154/212/3
f 132/203/3 154/212/3 155/213/3 156/214/3
f 137/193/3 156/214/3 155/213/3 138/194/3
f 138/194/3 155/213/3 154/212/3 139/195/3
f 139/195/3 154/212/3 153/211/3 140/196/3
f 140/196/3 153/211/3 152/210/3 141/197/3
f 141/197/3 152/210/3 106/188/3 105/187/3
f 147/205/3 146/202/3 145/201/3 148/206/3
f 148/206/3 145/201/3 144/200/3 149/207/3
f 149/207/3 144/200/3 143/199/3 150/208/3
f 150/208/3 143/199/3 142/198/3 151/209/3
f 151/209/3 142/198/3 108/190/3 107/189/3
usemtl 19___Default.003
f 113/215/5 114/216/5 115/217/5 116/218/5
f 121/219/4 122/220/4 123/221/4 124/222/4
f 122/223/3 121/224/3 129/192/3 130/191/3
f 114/162/3 113/225/3 131/204/3 132/203/3
f 124/226/1 123/227/1 133/228/1 134/229/1
f 116/230/1 115/231/1 135/232/1 136/233/1
f 121/234/6 124/226/6 134/166/6 129/165/6
f 123/227/2 122/235/2 130/236/2 133/237/2
usemtl Material__487.003
f 109/144/1 110/143/1 111/156/1 112/155/1
f 134/229/1 133/228/1 157/133/1 158/136/1
f 134/229/1 158/136/1 159/137/1 160/140/1
f 134/229/1 160/140/1 161/141/1 109/144/1
f 134/229/1 109/144/1 112/155/1 162/154/1
f 134/229/1 162/154/1 163/151/1 164/150/1
f 134/229/1 164/150/1 165/147/1 166/146/1
f 136/233/1 135/232/1 167/145/1 168/148/1
f 136/233/1 168/148/1 169/149/1 170/152/1
f 136/233/1 170/152/1 171/153/1 111/156/1
f 136/233/1 111/156/1 110/143/1 172/142/1
f 136/233/1 172/142/1 173/139/1 174/138/1
f 136/233/1 174/138/1 175/135/1 176/134/1
f 158/136/1 175/135/1 174/138/1 159/137/1
f 160/140/1 173/139/1 172/142/1 161/141/1
f 168/148/1 165/147/1 164/150/1 169/149/1
f 170/152/1 163/151/1 162/154/1 171/153/1
usemtl Material__489.003
f 125/238/2 126/239/2 127/240/2 128/241/2
f 113/225/2 116/242/2 136/243/2 131/244/2
f 131/244/2 136/243/2 176/245/2 193/246/2
f 131/244/2 193/246/2 194/247/2 195/248/2
f 131/244/2 195/248/2 196/249/2 125/238/2
f 131/244/2 125/238/2 128/241/2 197/250/2
f 131/244/2 197/250/2 198/251/2 199/252/2
f 131/244/2 199/252/2 200/253/2 147/254/2
f 133/237/2 130/236/2 146/255/2 201/256/2
f 133/237/2 201/256/2 202/257/2 203/258/2
f 133/237/2 203/258/2 204/259/2 127/240/2
f 133/237/2 127/240/2 126/239/2 205/260/2
f 133/237/2 205/260/2 206/261/2 207/262/2
f 133/237/2 207/262/2 208/263/2 157/264/2
f 176/245/2 157/264/2 208/263/2 193/246/2
f 193/246/2 208/263/2 207/262/2 194/247/2
f 194/247/2 207/262/2 206/261/2 195/248/2
f 195/248/2 206/261/2 205/260/2 196/249/2
f 196/249/2 205/260/2 126/239/2 125/238/2
f 146/255/2 147/254/2 200/253/2 201/256/2
f 201/256/2 200/253/2 199/252/2 202/257/2
f 202/257/2 199/252/2 198/251/2 203/258/2
f 203/258/2 198/251/2 197/250/2 204/259/2
f 204/259/2 197/250/2 128/241/2 127/240/2
